<svg xmlns="http://www.w3.org/2000/svg" width="85" height="93" viewBox="0 0 85 93"><g><g clip-path="url(#clip-157)"><path fill="#75b752" d="M85 6.766v40.31c0 1.256-.386 2.416-1.157 3.383L69.87 69.696c-.289.387-.385.773-.385 1.16v30.343c0 3.19-2.602 5.8-5.782 5.8H46.355c-1.446 0-2.795-.483-3.855-1.45-1.06.87-2.41 1.45-3.855 1.45H21.298c-3.18 0-5.782-2.61-5.782-5.8V70.856c0-.387-.193-.87-.386-1.16L1.156 50.459C.386 49.492 0 48.332 0 47.076V6.766C0 2.996 2.987-.001 6.746-.001c3.758 0 6.746 2.997 6.746 6.767v3.576c.867-.483 1.831-.676 2.891-.676 3.759 0 6.746 2.997 6.746 6.766v16.24l5.782 5.317v-1.257c0-5.316 3.084-9.86 7.517-12.083-1.638-1.643-2.698-3.866-2.698-6.283 0-4.834 3.855-8.7 8.673-8.7 4.819 0 8.674 3.866 8.674 8.7a8.61 8.61 0 0 1-2.699 6.283c4.433 2.223 7.517 6.767 7.517 12.083v1.257l5.783-5.316v-16.24c0-3.77 2.987-6.767 6.746-6.767 1.06 0 2.023.29 2.89.676V6.766c0-3.77 2.988-6.767 6.747-6.767 3.758 0 6.746 2.997 6.939 6.767zM65.533 29.579c1.156-.58 2.312-.773 3.565-.677.771 0 1.542.29 2.217.58v-13.05c0-1.643-1.253-2.9-2.891-2.9-1.639 0-2.891 1.257-2.891 2.9zM37.585 18.366c0 2.707 2.12 4.833 4.818 4.833 2.699 0 4.819-2.126 4.819-4.833 0-2.707-2.12-4.834-4.819-4.834-2.698 0-4.818 2.127-4.818 4.834zm-24.093 11.02a8.276 8.276 0 0 1 2.216-.58c1.253-.097 2.506.193 3.566.677v-13.05c0-1.644-1.253-2.9-2.89-2.9-1.64 0-2.892 1.256-2.892 2.9zm26.984 47.946H19.274V101.2c0 1.064.868 1.933 1.928 1.933h17.347c1.06 0 1.927-.87 1.927-1.933zm0-20.01c0-2.126-.964-4.253-2.506-5.703L18.31 33.446c-.578-.58-1.445-.87-2.216-.773-.771.096-1.542.483-2.024 1.16-.964 1.256-.674 2.996.482 4.06l18.696 17.4c.386.386.578.966.578 1.45 0 .386-.096.87-.482 1.256-.674.774-1.927.774-2.698.097l-18.792-17.4c-1.253-1.16-2.024-2.803-2.217-4.544V6.766c0-1.644-1.253-2.9-2.891-2.9-1.638 0-2.891 1.256-2.891 2.9v40.31c0 .386.192.773.385 1.16l13.878 19.236c.77.967 1.156 2.127 1.156 3.384v2.61h21.202zm3.758-8.506l7.807-7.25v-4.834c0-5.316-4.337-9.666-9.638-9.666-5.3 0-9.637 4.35-9.637 9.666v4.834l7.806 7.25a9.7 9.7 0 0 1 1.831 2.126 9.697 9.697 0 0 1 1.831-2.126zm21.299 28.516H44.33V101.2c0 1.064.867 1.933 1.927 1.933h17.347c1.06 0 1.928-.87 1.928-1.933zm15.323-30.256V6.766c0-1.644-1.253-2.9-2.892-2.9-1.638 0-2.89 1.256-2.89 2.9v29.29c-.097 1.643-.868 3.286-2.217 4.543L54.064 58c-.289.29-.77.483-1.253.483-.578 0-1.06-.193-1.445-.58-.771-.773-.675-1.933.096-2.706l18.793-17.303c1.156-1.16 1.349-2.9.482-4.06-.482-.677-1.253-1.064-2.024-1.16-.771-.097-1.639.193-2.217.773L46.836 51.62c-1.638 1.45-2.505 3.577-2.505 5.703v16.144h21.202v-2.61c0-1.257.385-2.417 1.156-3.384l13.877-19.236a1.86 1.86 0 0 0 .386-1.16z"/></g></g></svg>