<svg xmlns="http://www.w3.org/2000/svg" width="124" height="97" viewBox="0 0 124 97"><g><g clip-path="url(#clip-156)"><path fill="#75b752" d="M123.653 100.626c.95 1.39-.18 3.406-1.834 3.363l-119.644.013c-.417 0-.826-.12-1.177-.345a2.19 2.19 0 0 1-.657-3.017l44.797-70.5V2.185c0-1.208.974-2.187 2.176-2.187h18.588c1.201 0 2.175.98 2.175 2.187v14.297a2.18 2.18 0 0 1-2.175 2.185H49.489V30.14L74.44 69.419 87.284 49.19a2.167 2.167 0 0 1 3.668 0l32.701 51.433zM47.311 34.842L37.78 49.845c.093.032.202.066.29.098 3.35 1.301 5.355-.706 9.147-.666 3.552-.03 3.609 1.02 6.706 1.075 1.63 0 1.814-.256 2.863-.601zM63.727 4.373H49.489v9.925h14.235zM6.145 99.628c19.478.006 63.231-.014 82.324-.011l-29.185-45.93c-.726.051-1.085.186-1.531.358-1.438.92-6.491.78-7.846.037-.755-.241-1.354-.433-2.691-.433-3.096.052-3.148 1.108-6.696 1.075-2.887.009-3.24-.636-5.208-.997zm111.702-.014L89.122 54.43 77.027 73.483l16.606 26.131z"/></g></g></svg>