<svg xmlns="http://www.w3.org/2000/svg" width="93" height="100" viewBox="0 0 93 100"><g><g clip-path="url(#clip-154)"><path fill="#75b752" d="M46.498 3.694c-2.67 0-5.247.89-7.334 2.467l4.558-.535h.001a1.857 1.857 0 0 1 2.065 1.619l1.51 12.681 1.884-.45 1.813-7.698c.113-.478.41-.89.83-1.15.42-.257.925-.34 1.405-.228l4.582 1.064c-1.745-4.568-6.227-7.77-11.314-7.77zm-4.186 5.818L14.895 12.73l2.442 20.522h9.054l-1.472-6.08a1.847 1.847 0 0 1 1.373-2.229l17.363-4.147zm30.37 23.74l3.247-13.785-21.735-5.05-.964 4.092 3.028-.723c.48-.114.985-.035 1.407.22.42.256.72.667.837 1.143l3.414 14.103zM33.726 6.449c2.97-4.04 7.745-6.45 12.774-6.45 7.462 0 13.932 5.274 15.466 12.43l16.623 3.861c.48.111.897.408 1.157.825.26.416.343.918.23 1.394l-1.297 5.506h3.163c.654 0 1.26.34 1.595.897l5.554 9.194c.169.261.274.569.29.9l3.721 72.05c.026.507-.158 1-.509 1.368-.353.367-.84.575-1.35.575H1.856l-.093-.002a1.853 1.853 0 0 1-1.765-1.94l3.72-72.051v-.003c.016-.292.101-.585.263-.854l5.58-9.237a1.861 1.861 0 0 1 1.595-.897h1.335l-1.51-12.685a1.85 1.85 0 0 1 1.63-2.051l20.888-2.453c.058-.131.133-.258.226-.377zM12.209 27.71l-3.348 5.542h4.73l-.66-5.542zm71.927 5.542l-3.348-5.542h-2.98l-1.305 5.542zM55.32 21.812l-26.35 6.292 1.248 5.148h27.872zm33.865 83.492l-3.53-68.356H7.344l-3.53 68.356zM66.03 46.185c0 2.409-1.555 4.464-3.72 5.226v6.783c0 8.659-7.093 15.703-15.811 15.703s-15.81-7.044-15.81-15.703V51.41c-2.166-.762-3.721-2.817-3.721-5.226 0-3.056 2.503-5.542 5.58-5.542s5.58 2.486 5.58 5.542c0 2.409-1.554 4.464-3.72 5.226v6.782c0 6.622 5.424 12.009 12.091 12.009 6.667 0 12.091-5.388 12.091-12.009v-6.782c-2.166-.762-3.72-2.817-3.72-5.226 0-3.056 2.503-5.542 5.58-5.542s5.58 2.486 5.58 5.542zm-3.72 0a1.856 1.856 0 0 0-1.86-1.847c-1.026 0-1.86.83-1.86 1.848 0 .286.066.558.184.8.335-.484.897-.8 1.533-.8h.143c.688 0 1.289.37 1.61.923.159-.272.25-.587.25-.923zm-27.902 0a1.856 1.856 0 0 0-1.86-1.847c-1.026 0-1.86.83-1.86 1.848 0 .345.096.668.262.945a1.862 1.862 0 0 1 1.553-.9 1.862 1.862 0 0 1 1.643.9c.166-.277.262-.6.262-.945z"/></g></g></svg>