<svg xmlns="http://www.w3.org/2000/svg" width="105" height="100" viewBox="0 0 105 100"><g><g clip-path="url(#clip-155)"><path fill="#75b752" d="M47.371 9.753a1.696 1.696 0 0 1-.649 1.776l-6.267 4.56 3.492 10.472a1.694 1.694 0 0 1-.283 1.594 24.14 24.14 0 0 1-18.941 9.102h-7.785c-.747 0-1.406-.49-1.62-1.205l-3.86-12.865L3.15 22a1.696 1.696 0 0 1-.755-3.046L21.024 5.405c.355-.26.799-.371 1.235-.308l23.708 3.387c.682.099 1.237.6 1.404 1.269zm-9.788 8.425l-9.489 6.901c-.356.26-.798.37-1.234.309L15.15 23.715l3.047 10.155h6.525a20.755 20.755 0 0 0 15.711-7.134zm3.771-6.932L22.458 8.545 7.763 19.235l18.895 2.701zm25.19 6.186l5.672-5.673-4.319-9.356A1.697 1.697 0 0 1 70.145.155L92.16 10.316c.366.17.66.463.828.829l10.16 22.016a1.693 1.693 0 0 1-2.247 2.247l-9.356-4.318-5.672 5.671a1.688 1.688 0 0 1-1.197.496c-10.27 0-18.628-8.357-18.628-18.628 0-.45.178-.88.496-1.197zm6.354-12.276l7.975 17.276 17.275 7.975-7.975-17.276zM69.45 19.314c.35 7.862 6.68 14.19 14.54 14.541l4.278-4.278-9.382-4.33a1.691 1.691 0 0 1-.828-.828l-4.33-9.382zM20.86 81.378a11.38 11.38 0 0 1 7.483 8.083l.395 1.578-3.284.823-.394-1.58a8.026 8.026 0 0 0-5.272-5.693zm84.138-4.009a4.539 4.539 0 0 1-3.446 4.41c-2.56.638-4.79 2.21-6.251 4.406a9.478 9.478 0 0 1-2.225 2.352l-2.982 2.236a5.107 5.107 0 0 0-2.03 4.065v10.16h-3.388v-10.16a8.512 8.512 0 0 1 3.385-6.775l2.984-2.236a6.173 6.173 0 0 0 1.438-1.52 13.956 13.956 0 0 1 8.249-5.814 1.16 1.16 0 0 0-.28-2.284c-3.428.004-6.809.803-9.877 2.332l-1.753.877a1.696 1.696 0 0 1-2.452-1.516v-6.774c0-.112.011-.222.034-.331l2.95-14.752c.267-1.337.403-2.709.403-4.08a1.16 1.16 0 0 0-2.285-.282l-4.54 18.162a1.694 1.694 0 0 1-3.336-.41V54.593l-5.08 10.161v9.06a7.425 7.425 0 0 1-2.19 5.286 4.06 4.06 0 0 0-1.197 2.89v2.687h3.386c.936 0 1.694.758 1.694 1.693v8.468c0 .935-.758 1.693-1.694 1.693V105H71.13V96.53H49.113V105h-3.386V96.53a1.694 1.694 0 0 1-1.694-1.693V86.37c0-.935.758-1.693 1.694-1.693h3.385l.001-3.387a5.104 5.104 0 0 0-2.032-4.065l-1.823-1.37-2.918 5.834v9.06a7.426 7.426 0 0 1-2.19 5.286 4.06 4.06 0 0 0-1.197 2.89V105h-3.387v-6.073a7.425 7.425 0 0 1 2.19-5.286 4.06 4.06 0 0 0 1.197-2.89v-9.46c0-.263.06-.522.18-.758l3.483-6.965c-.26-.3-.519-.598-.74-.93a10.6 10.6 0 0 0-1.294-1.576l-1.766 4.121a1.69 1.69 0 0 1-1.7 1.02 1.699 1.699 0 0 1-1.543-1.84l.541-5.959c-.167-.049-.321-.128-.49-.17a4.523 4.523 0 0 1-2.404-1.525l-1.065 6.391a1.71 1.71 0 0 1-1.808 1.411 1.693 1.693 0 0 1-1.555-1.688V52.499a1.693 1.693 0 0 0-3.387 0v20.323c0 .855-.638 1.576-1.485 1.682a1.689 1.689 0 0 1-1.85-1.27l-4.54-18.162a1.16 1.16 0 0 0-2.286.281c0 1.37.135 2.736.403 4.08l2.95 14.75c.023.11.034.22.034.332v6.775a1.689 1.689 0 0 1-2.45 1.515l-1.753-.878a22.222 22.222 0 0 0-9.878-2.331 1.16 1.16 0 0 0-.283 2.286 13.949 13.949 0 0 1 8.25 5.812c.389.584.874 1.097 1.435 1.518l2.986 2.239a8.507 8.507 0 0 1 3.387 6.774v6.774h-3.387v-6.774a5.103 5.103 0 0 0-2.032-4.064l-2.984-2.238a9.505 9.505 0 0 1-2.224-2.35 10.56 10.56 0 0 0-6.25-4.405 4.539 4.539 0 0 1-3.445-4.412A4.55 4.55 0 0 1 4.55 76.21c3.693.004 7.341.807 10.694 2.354v-3.88l-2.918-14.585a24.363 24.363 0 0 1-.469-4.745 4.55 4.55 0 0 1 4.547-4.547 4.537 4.537 0 0 1 4.41 3.444l1.204 4.813v-6.564c0-2.8 2.28-5.08 5.08-5.08 2.802 0 5.08 2.28 5.08 5.08v.601a3.854 3.854 0 0 1 3.535-2.294 4.94 4.94 0 0 1 4.914 5.37l-.308 3.386a25.657 25.657 0 0 1 7.101 2.066v-3.88l-2.918-14.585a24.356 24.356 0 0 1-.469-4.746 4.55 4.55 0 0 1 4.547-4.547 4.538 4.538 0 0 1 4.41 3.445l1.204 4.813v-6.564a5.087 5.087 0 0 1 5.08-5.08c2.801 0 5.08 2.279 5.08 5.08v.601a3.854 3.854 0 0 1 3.535-2.295 4.94 4.94 0 0 1 4.913 5.37l-.713 7.847.074-.173a4.749 4.749 0 0 1 4.371-2.883c.237 0 .464.036.691.07.224-.03.447-.07.677-.07 2.801 0 5.08 2.28 5.08 5.082v6.563l1.205-4.813a4.537 4.537 0 0 1 4.41-3.444 4.55 4.55 0 0 1 4.547 4.547c0 1.592-.16 3.187-.47 4.745l-2.917 14.585v3.88a25.6 25.6 0 0 1 10.694-2.354 4.55 4.55 0 0 1 4.547 4.547zM34.345 59.964a4.5 4.5 0 0 1 2.38-.69c.072 0 .145.011.218.011l.31-3.405c.006-.994-.686-1.687-1.54-1.687a.477.477 0 0 0-.472.401zm38.477 28.1H47.42v5.08h25.402zm4.356-36.21a6.855 6.855 0 0 0 .724-3.067 1.367 1.367 0 0 0-2.626-.537l-4.285 9.997a1.697 1.697 0 0 1-1.97.975 1.698 1.698 0 0 1-1.273-1.796l1.68-18.482c.007-.994-.686-1.687-1.539-1.687a.482.482 0 0 0-.474.402L64.33 56.164a1.693 1.693 0 0 1-3.363-.278V35.564a1.694 1.694 0 1 0-3.387 0v20.322c0 .856-.639 1.577-1.485 1.682a1.688 1.688 0 0 1-1.85-1.27l-4.54-18.162a1.161 1.161 0 0 0-2.286.282c0 1.37.135 2.735.403 4.079l2.95 14.751c.022.11.034.22.034.332v6.774a1.695 1.695 0 0 1-2.45 1.516l-1.753-.878a22.221 22.221 0 0 0-9.878-2.331 1.16 1.16 0 0 0-.283 2.286c3.379.84 6.321 2.913 8.249 5.812.39.583.875 1.096 1.436 1.518l2.985 2.238A8.51 8.51 0 0 1 52.5 81.29l-.001 3.387h15.243V81.99a7.423 7.423 0 0 1 2.19-5.285 4.062 4.062 0 0 0 1.197-2.89v-9.46c0-.263.06-.523.177-.758zm8.033 29.347a8.026 8.026 0 0 0-5.271 5.692l-.395 1.582-3.284-.823.395-1.58a11.396 11.396 0 0 1 7.485-8.081zM60.52 72.525l.395 1.579-3.284.823-.395-1.58a8.026 8.026 0 0 0-5.271-5.694l1.072-3.21a11.38 11.38 0 0 1 7.483 8.082z"/></g></g></svg>