<svg xmlns="http://www.w3.org/2000/svg" width="73" height="94" viewBox="0 0 73 94"><g><g clip-path="url(#clip-159)"><path fill="#75b752" d="M62.302 6.587c5.905.007 10.69 4.772 10.698 10.653v89.106c-.007 5.88-4.793 10.645-10.698 10.652H10.697C4.792 116.991.007 112.226 0 106.346V17.239C.007 11.36 4.792 6.593 10.697 6.587h15.655A11.065 11.065 0 0 1 32.02.942c5.604-2.464 12.153.064 14.627 5.645h15.654zm-39.018 4.849v2.128c.004 3.204 2.61 5.799 5.827 5.803H43.89c3.216-.004 5.822-2.6 5.826-5.803v-2.128h-4.828a2.43 2.43 0 0 1-2.379-1.905c-.598-2.711-3.125-4.68-6.008-4.68s-5.41 1.969-6.008 4.68a2.433 2.433 0 0 1-2.378 1.905zm44.845 5.804c-.004-3.204-2.61-5.8-5.827-5.804h-7.717v2.128c-.006 5.881-4.791 10.646-10.697 10.653H29.111c-5.905-.007-10.69-4.772-10.698-10.653v-2.128h-7.716c-3.217.004-5.823 2.6-5.827 5.804v89.106c.004 3.204 2.61 5.8 5.827 5.803h51.605c3.217-.004 5.824-2.6 5.827-5.803zM48.552 44.807a2.443 2.443 0 0 1 3.437.048c.936.955.92 2.485-.036 3.422L34.266 65.474c-.946.92-2.456.92-3.403 0l-9.818-9.546-.033-.032a2.419 2.419 0 0 1 .008-3.414 2.44 2.44 0 0 1 3.427-.024l8.118 7.891 15.987-15.544z"/></g></g></svg>