<svg xmlns="http://www.w3.org/2000/svg" width="88" height="94" viewBox="0 0 88 94"><g><g clip-path="url(#clip-158)"><path fill="#75b752" d="M36.964 79.474c1.604 1 3.408 1.798 4.811 2.197V63.899c-3.808-.799-6.615-3.994-7.016-7.988-2.205-.799-3.608-2.995-3.608-5.392 0-1.598.601-2.995 1.604-3.993 0-3.994-1.604-7.789-4.61-10.784C15.114 22.363 24.936.197 43.378-.002c19.444-.2 28.866 22.565 15.836 35.944a14.933 14.933 0 0 0-4.41 10.584c0 .399-.2.598-.2.798.6.999 1.002 1.997 1.002 3.195 0 2.197-1.203 3.994-2.807 4.992 0 4.194-3.006 7.789-7.016 8.587v17.773c1.604-.6 3.408-1.198 5.012-2.197v-.2c.2-.599 3.408-15.376 7.417-20.967 4.41-5.99 21.85-6.39 25.859-6.19 1.804.2 3.207.2 3.808 1.397 1.203 1.797-7.016 22.366-12.228 26.36-2.806 1.996-7.617 2.595-12.227 2.595-3.408 0-6.616-.4-8.62-.599-2.806 1.598-5.813 2.996-8.82 3.795v23.194H70.84c1.203 0 2.005.8 2.005 1.997 0 1.199-.802 1.997-2.005 1.997h-2.004l-5.412 30.353c-.602 2.596-2.807 4.593-5.413 4.593H29.948c-2.606 0-4.81-1.997-5.412-4.593l-5.412-30.353h-2.005c-1.203 0-2.004-.798-2.004-1.997 0-1.198.801-1.997 2.004-1.997h24.857V85.865c-3.007-.8-6.014-1.998-8.82-3.795-5.613.8-16.237 1.398-20.848-1.996C7.297 76.08-.922 55.312.08 53.514c.602-1.197 2.005-1.397 3.809-1.397 25.057-1.198 28.465 5.592 33.075 27.158zM13.11 63.3c-.802-.8-.802-1.997.2-2.596.802-.6 2.005-.6 2.807.2L17.52 62.5c3.207 3.594 8.42 9.585 14.633 14.178-3.808-15.376-4.81-21.168-27.663-20.369 2.807 7.389 7.217 18.172 10.424 20.568 2.406 1.598 8.018 1.997 13.43 1.598-5.813-4.393-10.623-9.985-13.83-13.58zm48.51-2.596c-2.205 3.195-4.61 10.583-5.813 15.576 6.014-4.394 11.426-10.584 14.634-14.179l1.403-1.598c.802-.798 2.004-.998 2.806-.199.802.8 1.002 1.997.2 2.796l-1.403 1.597c-3.407 3.595-8.218 8.986-13.831 13.58 5.412.399 11.225.199 13.43-1.598 3.208-2.197 7.818-12.98 10.424-20.568-5.212-.2-19.244.798-21.85 4.593zm-1.002 75.114H27.342l1.203 6.99c.2.598.802 1.198 1.403 1.198h28.064c.602 0 1.203-.6 1.403-1.199zm-23.854-91.29h5.212V27.756l-4.61-4.593c-.803-.799-.803-1.997 0-2.796.801-.799 2.004-.799 2.806 0l3.808 3.794 3.809-3.594c.802-.799 2.005-.799 2.806 0 .802.798.802 1.997 0 2.795l-4.61 4.593v16.774h5.212c.4-4.193 2.205-8.187 5.412-11.382C67.233 22.363 59.215 4.191 43.78 4.191c-14.632.2-23.252 17.972-12.628 28.956 3.207 3.394 5.212 7.388 5.613 11.382zm.601 7.988h12.629c1.203 0 2.005-.998 2.005-1.997 0-1.198-1.003-1.997-2.005-1.997H37.365c-1.202 0-2.004.999-2.004 1.997 0 1.198.802 1.997 2.004 1.997zm1.604 3.994c.601 2.197 2.405 3.794 4.81 3.794a5.169 5.169 0 0 0 5.012-3.794zm-15.836 56.543l3.408 18.572H61.22l3.407-18.572z"/></g></g></svg>