<svg xmlns="http://www.w3.org/2000/svg" width="15" height="24" viewBox="0 0 15 24"><g><g><path fill="#51a44a" d="M4.102.57h6.232c.041.013.082.035.124.039 2.21.291 3.874 2.146 3.879 4.376.01 4.66.008 9.32 0 13.98a4.401 4.401 0 0 1-2.83 4.103c-.376.147-.781.211-1.173.316H4.102c-.042-.014-.082-.032-.124-.038-2.199-.29-3.873-2.15-3.879-4.354C.088 14.316.09 9.641.1 4.959.102 3.104 1.318 1.426 3.074.827 3.407.715 3.758.654 4.102.57zM1.876 11.973v6.86c0 1.605 1.16 2.768 2.764 2.768h5.14c1.62 0 2.78-1.157 2.78-2.773v-13.7c0-1.62-1.157-2.778-2.776-2.778H4.667c-1.636 0-2.79 1.153-2.791 2.783v6.84zm5.343-6.057c-.296 0-.592.006-.888-.002-.506-.012-.893-.398-.893-.885 0-.497.385-.889.89-.897.592-.004 1.184-.004 1.777 0a.889.889 0 0 1 .892.893c.001.488-.384.877-.889.889-.296.008-.592.002-.889.002zm.009 12.121c.289 0 .578-.004.866 0 .52.008.909.398.903.9-.004.491-.391.874-.9.878-.586.008-1.171.008-1.756 0-.518-.004-.908-.398-.903-.897.005-.49.392-.873.901-.878.296-.007.593-.003.889-.003z"/></g></g></svg>