<svg xmlns="http://www.w3.org/2000/svg" width="18" height="30" viewBox="0 0 18 30"><g><g><path fill="#51a44a" d="M5.062.009h7.873c.052.018.103.047.157.051 2.792.384 4.893 2.824 4.899 5.755.014 6.128.01 12.259 0 18.387-.003 2.398-1.43 4.542-3.575 5.394-.474.193-.986.278-1.481.416H5.062c-.052-.018-.103-.042-.156-.05C2.129 29.58.014 27.134.007 24.236c-.014-6.149-.012-12.297 0-18.454.004-2.44 1.54-4.646 3.757-5.434.421-.147.865-.228 1.298-.34zM2.251 15.007v9.022c.001 2.11 1.467 3.639 3.491 3.639h6.493c2.047 0 3.51-1.522 3.511-3.647V6.004c0-2.13-1.461-3.652-3.505-3.652H5.776c-2.066 0-3.524 1.517-3.525 3.66v8.995zM9 7.042c-.375 0-.749.007-1.123-.003A1.147 1.147 0 0 1 6.75 5.875c0-.653.486-1.169 1.124-1.18a167.05 167.05 0 0 1 2.245 0c.64.011 1.127.524 1.128 1.175a1.146 1.146 0 0 1-1.124 1.169c-.374.01-.748.003-1.123.003zm.01 15.94c.365 0 .73-.006 1.095 0 .655.01 1.147.522 1.14 1.184-.005.645-.494 1.148-1.138 1.153-.739.01-1.478.01-2.217 0-.655-.005-1.147-.523-1.14-1.179.006-.645.495-1.148 1.138-1.154.374-.01.748-.005 1.122-.005z"/></g></g></svg>