<svg xmlns="http://www.w3.org/2000/svg" width="20" height="20" viewBox="0 0 20 20"><g><g><path fill="#7f91ff" d="M11.393 19.118c0 .487.367.882.82.882 1.271 0 2.413-.292 3.395-.865.977-.57 1.808-1.389 2.474-2.431.647-1.014 1.136-2.238 1.455-3.64.311-1.366.469-2.912.469-4.6V.885c0-.487-.366-.882-.82-.882h-6.974c-.452 0-.819.395-.819.883v7.58c0 .486.367.882.82.882h2.616c-.122 3.517-1 5.299-2.617 5.299-.452 0-.819.394-.819.881zm-11.39-3.59v3.59c0 .487.368.882.82.882 1.27 0 2.413-.292 3.395-.865.977-.57 1.809-1.389 2.474-2.431.647-1.014 1.136-2.238 1.455-3.64.311-1.366.469-2.914.469-4.6V.885c0-.487-.368-.882-.82-.882H.825c-.454 0-.82.395-.82.883v7.58c0 .488.366.882.82.882h2.577c-.12 3.517-.986 5.299-2.58 5.299-.451 0-.819.394-.819.881z"/></g></g></svg>